<?xml version="1.0" standalone="no"?>
<!DOCTYPE svg PUBLIC "-//W3C//DTD SVG 20010904//EN"
 "http://www.w3.org/TR/2001/REC-SVG-20010904/DTD/svg10.dtd">
<svg version="1.0" xmlns="http://www.w3.org/2000/svg"
 width="260.000000pt" height="260.000000pt" viewBox="0 0 260.000000 260.000000"
 preserveAspectRatio="xMidYMid meet">
<metadata>
Created by potrace 1.11, written by Peter Selinger 2001-2013
</metadata>
<g transform="translate(0.000000,260.000000) scale(0.100000,-0.100000)"
fill="#000000" stroke="none">
<path d="M1367 2363 c-4 -4 -22 -8 -40 -8 -89 -3 -231 -69 -302 -140 -70 -69
-153 -203 -170 -275 -7 -28 -30 -85 -37 -90 -4 -3 -8 -17 -10 -30 -2 -14 -7
-31 -11 -37 -5 -7 -5 -13 0 -13 4 0 3 -4 -2 -8 -9 -6 -61 -145 -69 -183 -2 -8
-8 -25 -13 -39 -6 -14 -9 -28 -6 -32 2 -5 -1 -8 -7 -8 -6 0 -8 -4 -5 -10 3 -5
1 -10 -4 -10 -6 0 -10 -3 -9 -7 3 -10 -13 -57 -21 -63 -3 -3 -21 -35 -39 -72
-19 -37 -42 -76 -52 -88 -10 -11 -28 -36 -41 -55 -15 -21 -33 -35 -46 -36 -23
-2 -39 -4 -48 -9 -3 -1 -8 -3 -12 -4 -56 -15 -93 -28 -98 -35 -3 -5 -13 -8
-23 -6 -9 1 -29 -4 -44 -12 -15 -7 -30 -13 -33 -13 -3 0 -28 -9 -56 -22 -55
-23 -73 -50 -85 -125 -3 -21 -8 -41 -11 -45 -2 -5 1 -8 8 -8 10 0 10 -3 2 -11
-7 -7 -8 -20 -3 -34 5 -12 5 -26 1 -31 -4 -5 -15 -35 -26 -66 -10 -32 -26 -65
-37 -74 -17 -16 -18 -39 -18 -341 l0 -323 1110 0 c733 0 1110 3 1110 10 0 6 5
10 11 10 5 0 8 -4 5 -8 -3 -5 12 -9 34 -8 21 0 37 2 35 4 -5 5 21 32 29 32 3
0 2 -8 -1 -18 -6 -15 -5 -16 12 -2 17 14 18 13 11 -5 -6 -16 -5 -18 5 -7 15
14 33 16 25 3 -3 -5 43 -9 104 -10 l110 -2 0 133 c0 121 -2 134 -19 143 -39
20 -171 118 -171 126 0 5 -3 8 -7 7 -5 -2 -9 1 -10 6 -1 5 -6 12 -12 15 -6 4
-12 19 -13 34 -1 15 -6 27 -11 27 -5 0 -7 6 -4 14 4 11 0 13 -15 11 -11 -3
-18 -2 -14 2 3 3 0 13 -7 21 -10 13 -9 14 1 8 10 -6 12 -1 9 22 -3 18 0 33 6
36 9 3 9 5 0 5 -9 1 -10 8 -3 26 8 20 7 23 -8 18 -14 -5 -14 -3 3 16 12 14 14
21 6 19 -8 -2 -15 8 -18 27 -2 16 -9 33 -15 36 -7 4 -5 9 3 12 10 4 10 6 2 6
-7 1 -13 9 -13 19 0 29 -11 33 -29 11 -15 -18 -18 -18 -44 -4 -15 8 -36 16
-45 17 -22 4 -52 30 -46 40 3 4 1 8 -4 8 -10 0 -25 37 -23 57 1 6 -3 14 -9 18
-8 5 -7 11 1 21 10 12 9 13 -6 8 -13 -5 -16 -4 -11 4 4 7 2 12 -4 12 -6 0 -8
5 -5 10 3 6 0 17 -9 25 -8 8 -13 24 -11 35 2 12 -2 20 -10 20 -9 0 -12 6 -8
17 4 10 2 14 -5 9 -7 -4 -10 1 -7 14 2 11 -1 20 -6 20 -6 0 -7 5 -4 10 3 6 1
10 -5 10 -6 0 -9 4 -5 9 3 5 1 12 -5 16 -6 4 -8 11 -4 16 3 5 10 7 15 4 5 -4
9 -1 9 4 0 6 -5 11 -10 11 -6 0 -2 9 9 21 11 12 18 30 16 40 -2 10 1 21 6 24
5 4 6 11 3 17 -4 6 0 15 7 20 10 6 6 7 -11 3 l-25 -6 25 22 c15 13 18 20 8 16
-10 -3 -19 0 -22 9 -4 10 -2 12 6 8 7 -5 9 1 6 20 -5 25 2 31 27 26 5 -1 7 2
3 6 -4 4 -3 13 3 21 6 7 8 13 4 13 -4 0 -13 -8 -20 -17 -11 -15 -12 -14 -12
10 0 15 3 24 8 21 5 -3 9 -1 9 5 0 5 -6 11 -12 14 -10 3 -10 7 1 20 7 9 17 15
20 12 4 -2 8 3 8 11 0 10 -4 11 -11 4 -16 -16 -22 -12 -22 15 0 28 6 31 24 13
8 -8 12 -9 12 -1 0 6 -5 13 -11 15 -6 2 -12 20 -13 40 0 20 -4 39 -8 43 -4 4
-4 13 -1 21 4 12 8 12 22 2 14 -11 14 -11 4 3 -7 9 -9 20 -5 24 4 5 1 5 -5 1
-7 -4 -13 -2 -13 3 0 6 6 11 13 12 6 0 3 4 -8 9 -11 5 -14 9 -6 9 10 1 11 4 2
15 -10 11 -8 17 6 25 17 10 17 10 -2 11 -17 0 -17 2 -5 10 10 6 11 10 3 10 -7
0 -13 7 -13 16 0 8 4 13 9 9 5 -3 13 -1 16 5 4 6 1 9 -5 8 -7 -2 -18 18 -24
45 -7 26 -10 47 -7 47 3 0 0 5 -6 11 -6 6 -9 18 -6 27 4 9 2 13 -4 9 -6 -4
-13 2 -16 13 -3 11 -1 18 3 15 5 -3 12 -1 15 5 4 6 3 10 -2 9 -22 -4 -31 4
-48 41 -10 22 -22 40 -27 40 -5 0 -6 5 -3 10 3 6 1 10 -4 10 -6 0 -29 18 -52
40 -22 21 -49 42 -60 45 -10 4 -19 11 -19 16 0 6 -4 7 -10 4 -5 -3 -10 -2 -10
3 0 8 -74 47 -90 47 -3 0 -12 5 -20 10 -8 5 -22 10 -30 10 -8 0 -25 6 -36 13
-12 6 -24 9 -27 6 -3 -3 -12 -2 -19 2 -7 5 -36 9 -65 9 -29 1 -55 4 -59 8 -4
3 -15 2 -25 -3 -11 -7 -19 -6 -21 1 -2 6 -7 7 -11 2z m653 -1068 c-5 -6 -8
-15 -5 -18 3 -4 2 -5 -2 -2 -13 10 -10 43 4 38 9 -4 10 -9 3 -18z m0 -39 c0
-2 -7 -9 -15 -16 -13 -11 -14 -10 -9 4 5 14 24 23 24 12z m115 -1136 c-4 -6 3
-9 16 -7 12 1 23 -3 26 -9 6 -16 -54 -77 -68 -68 -8 4 -10 3 -5 -4 4 -7 2 -12
-3 -12 -6 0 -11 9 -11 21 0 11 4 17 10 14 6 -3 7 1 4 9 -3 9 -10 14 -14 11 -5
-3 -6 4 -3 15 8 29 25 37 21 10 -2 -14 3 -25 12 -27 13 -4 13 -3 0 6 -13 9
-13 11 3 11 9 0 17 -5 17 -12 0 -6 3 -8 7 -4 5 4 0 14 -11 21 -15 12 -15 35 0
35 3 0 2 -4 -1 -10z m152 -79 c-15 -10 -24 -21 -20 -26 5 -4 2 -5 -4 -1 -18
10 -16 26 3 26 8 0 13 4 10 8 -2 4 5 9 17 9 19 2 18 0 -6 -16z"/>
<path d="M2015 1180 c-3 -5 -1 -10 4 -10 6 0 11 5 11 10 0 6 -2 10 -4 10 -3 0
-8 -4 -11 -10z"/>
<path d="M2335 581 c-3 -5 -2 -12 3 -15 5 -3 9 1 9 9 0 17 -3 19 -12 6z"/>
<path d="M2345 540 c-3 -6 1 -7 9 -4 18 7 21 14 7 14 -6 0 -13 -4 -16 -10z"/>
</g>
</svg>
