<svg viewBox="0 0 10 10" xmlns="http://www.w3.org/2000/svg" xmlns:xlink="http://www.w3.org/1999/xlink"><title>minimal-star</title><g><path xmlns="http://www.w3.org/2000/svg" d="M7 3.117l2.754 1.507a.394.394 0 0 1 0 .69l-2.756 1.508a.397.397 0 0 0-.156.156l-1.507 2.756a.393.393 0 0 1-.69 0l-1.507-2.756a.402.402 0 0 0-.16-.156l-2.752-1.507a.393.393 0 0 1 0-.69l2.754-1.508a.402.402 0 0 0 .157-.156l1.508-2.755a.394.394 0 0 1 .69 0l1.507 2.756c.036.066.09.12.156.157" fill="#E98333" style="mix-blend-mode:lighten"/></g></svg>